<svg xmlns="http://www.w3.org/2000/svg" width="287.354" height="143.815" viewBox="0 0 287.354 143.815">
  <g id="Group_2041" data-name="Group 2041" transform="translate(-750.52 -312.16)">
    <path id="Path_30" data-name="Path 30" d="M1004.092,408.324c-4.064,10.034-7.427,14.329-13.708,14.136s-8.707-3.5-8.966-11.2,6.635-21.372,16.945-24.211,12.972,3.174,12.972,3.174-3.181,8.071-7.243,18.1M879.741,388.033c-2.686.082-6.7-.25-7.7-3.3a5.25,5.25,0,0,1,2.017-5.76,3.521,3.521,0,0,1,5.57,1.809,15.146,15.146,0,0,1,.117,7.253m160.9,20.709a.978.978,0,0,0-1.455.177c-2.07,3.01-9.211,12.462-18.835,14.893-11.493,2.9-7.273-5.527-6.513-7.523.656-1.726,11.033-27.39,13.852-34.36a1.015,1.015,0,0,0-1.138-1.375l-10.2,2.008a3.76,3.76,0,0,0-2.748,2.249l-.5,1.2s-4.491-7.349-19.1-4.345-28.5,18.551-27.7,31.8a27.06,27.06,0,0,1-20.751,10.59c-13.87.423-14.917-12.716-12.865-20.983s7.349-17.184,15.4-17.087c7.314.087,7.718,8.257,6.454,12.082a1.205,1.205,0,0,0,.684,1.481l4.028,1.7a1.037,1.037,0,0,0,1.38-.6c.96-2.644,2.971-9.9-1.554-14.907-5.624-6.228-19.361-6.967-30.386,1.046s-14.156,21.58-11.026,30.452c0,0-6.853,6.827-14.908,6.8-12.334-.041-.295-17.943,7.354-34.172,3.239-6.871-.787-11.238-14.506-6.093-4.358,1.634-8.805,2.971-8.805,2.971s.906-6.42-1.933-10.07-9.409-5.363-15.22-1.338-10.806,18.639,7.983,20.206A45.076,45.076,0,0,1,866.856,413.4c-7.77,7.816-13.816,10.488-19.935,10.633S845.3,415.2,845.3,415.2l12.977-32.533a1.468,1.468,0,0,0-1.669-1.98l-.669.142s-8.08,1.269-9.391,2.086-1.3.247-4.511,8.221-7.777,19.268-9.834,24.552-2.035,14.838,11.895,14.838,28.954-8.753,40.976-35.211a90.2,90.2,0,0,0,10.979-2.525s-7.466,18.273-9.922,24.271.229,13.471,13.8,13.471,20.448-7.879,20.448-7.879,20.565,18.538,47.252-1.748c0,0,3.714,7.561,11.81,9.108s16.678-.916,20.923-6.544c0,0,1.934,7.156,12.373,7.063,10.18-.089,21.674-4.77,30.827-17.585a1.351,1.351,0,0,0-.2-1.793Z" transform="translate(-5.935 -4.477)" fill="#000"/>
    <path id="Path_31" data-name="Path 31" d="M851.474,373.541a.793.793,0,0,1-.842-1.085c.8-1.944,1.415-3.5,2.05-5.251.895-2.46,1.8-3.333,5.8-3.92,3.753-.55,7.561-1.372,9.5-1.419a.963.963,0,0,1,.908,1.348c-1.133,2.611-4.971,8.642-17.413,10.327" transform="translate(-7.359 -3.656)" fill="#000"/>
    <path id="Path_32" data-name="Path 32" d="M865.231,453.43h-1.337v5.31h1.215a1.048,1.048,0,0,0,1.2-1.2V454.5a.939.939,0,0,0-1.076-1.072m2.715,7.924v4.78h-1.62v-4.719c0-.851-.386-1.238-1.239-1.238h-1.193v5.957h-1.621v-14.18h3.019a2.322,2.322,0,0,1,2.632,2.632v2.632c0,1.28-.443,1.906-1.253,2.231.889.243,1.275.811,1.275,1.906" transform="translate(-8.219 -10.282)" fill="#000"/>
    <path id="Path_33" data-name="Path 33" d="M871.767,451.952v14.181h4.5v-1.5h-2.877v-5h2.734v-1.481h-2.734v-4.7h2.837v-1.5Z" transform="translate(-8.917 -10.281)" fill="#000"/>
    <path id="Path_34" data-name="Path 34" d="M885.429,461.547v2.067a2.323,2.323,0,0,1-2.636,2.633h-.443a2.291,2.291,0,0,1-2.6-2.595v-2.976h1.58v3.037a.94.94,0,0,0,1.076,1.076h.326a.939.939,0,0,0,1.072-1.076v-2.128a1.448,1.448,0,0,0-.709-1.356l-1.988-1.44a2.812,2.812,0,0,1-1.356-2.631v-1.7a2.323,2.323,0,0,1,2.637-2.633h.4a2.289,2.289,0,0,1,2.594,2.595v2.552h-1.579v-2.614a.939.939,0,0,0-1.072-1.076h-.288a.939.939,0,0,0-1.072,1.076v1.78a1.47,1.47,0,0,0,.727,1.36l1.97,1.42a2.8,2.8,0,0,1,1.355,2.633" transform="translate(-9.505 -10.272)" fill="#000"/>
    <path id="Path_35" data-name="Path 35" d="M892.323,453.3h-.485a.939.939,0,0,0-1.076,1.072v9.321a.94.94,0,0,0,1.076,1.076h.485a.94.94,0,0,0,1.076-1.076v-9.321a.939.939,0,0,0-1.076-1.072m.06,12.946h-.606a2.323,2.323,0,0,1-2.637-2.633v-9.158a2.325,2.325,0,0,1,2.637-2.636h.606a2.324,2.324,0,0,1,2.632,2.636v9.158a2.322,2.322,0,0,1-2.632,2.633" transform="translate(-10.195 -10.272)" fill="#000"/>
    <path id="Path_36" data-name="Path 36" d="M901.815,453.43h-1.337v5.31h1.216a1.048,1.048,0,0,0,1.2-1.2V454.5a.939.939,0,0,0-1.076-1.072m2.715,7.924v4.78h-1.62v-4.719c0-.851-.386-1.238-1.239-1.238h-1.193v5.957h-1.621v-14.18h3.019a2.321,2.321,0,0,1,2.632,2.632v2.632c0,1.28-.443,1.906-1.253,2.231.889.243,1.276.811,1.276,1.906" transform="translate(-10.91 -10.282)" fill="#000"/>
    <path id="Path_37" data-name="Path 37" d="M907.52,451.952v1.5h2.129v12.685h1.62V453.448H913.4v-1.5Z" transform="translate(-11.547 -10.281)" fill="#000"/>
    <path id="Path_38" data-name="Path 38" d="M924.767,463.651l.3-.927-1.924-3.549-.284.265a1.632,1.632,0,0,0-.61,1.417v2.94a.861.861,0,0,0,.973.973h.466c.629,0,.811-.326,1.077-1.117m1.3.731a2.32,2.32,0,0,1-2.675,1.864h-.223a2.191,2.191,0,0,1-2.474-2.469v-2.86a2.936,2.936,0,0,1,.954-2.39l.788-.689-.466-.852a3.724,3.724,0,0,1-.484-2.086v-.607a2.192,2.192,0,0,1,2.474-2.474h.363a2.15,2.15,0,0,1,2.432,2.432v2.087h-1.56v-2.064a.86.86,0,0,0-.974-.974h-.163a.858.858,0,0,0-.97.974v.625a2.612,2.612,0,0,0,.285,1.4l2.45,4.643.993-3.223h1.5l-1.518,4.8,1.984,3.606h-1.742Z" transform="translate(-12.516 -10.272)" fill="#000"/>
    <path id="Path_39" data-name="Path 39" d="M941.914,460.675v2.94a2.322,2.322,0,0,1-2.632,2.632h-.526a2.323,2.323,0,0,1-2.637-2.632v-9.159a2.326,2.326,0,0,1,2.637-2.637h.526a2.281,2.281,0,0,1,2.59,2.595v2.553h-1.58v-2.595a.937.937,0,0,0-1.071-1.072h-.406a.939.939,0,0,0-1.076,1.072v9.322a.94.94,0,0,0,1.076,1.075h.444a.939.939,0,0,0,1.075-1.075v-3.019Z" transform="translate(-13.65 -10.272)" fill="#000"/>
    <path id="Path_40" data-name="Path 40" d="M948.291,454.461l1.093,7.841h-2.207Zm-1.012-2.553-2.189,14.223h1.56l.326-2.372h2.609l.345,2.372h1.6l-2.189-14.223Z" transform="translate(-14.31 -10.278)" fill="#000"/>
    <path id="Path_41" data-name="Path 41" d="M960.5,461.547v2.067a2.323,2.323,0,0,1-2.637,2.633h-.443a2.291,2.291,0,0,1-2.594-2.595v-2.976h1.579v3.037a.94.94,0,0,0,1.076,1.076h.326a.939.939,0,0,0,1.072-1.076v-2.128a1.448,1.448,0,0,0-.709-1.356l-1.988-1.44a2.813,2.813,0,0,1-1.355-2.631v-1.7a2.323,2.323,0,0,1,2.636-2.633h.4a2.289,2.289,0,0,1,2.595,2.595v2.552h-1.579v-2.614a.939.939,0,0,0-1.072-1.076h-.288a.938.938,0,0,0-1.071,1.076v1.78a1.471,1.471,0,0,0,.726,1.36l1.966,1.42a2.794,2.794,0,0,1,1.36,2.633" transform="translate(-15.026 -10.272)" fill="#000"/>
    <rect id="Rectangle_33" data-name="Rectangle 33" width="1.621" height="14.181" transform="translate(948.558 441.672)" fill="#000"/>
    <path id="Path_42" data-name="Path 42" d="M974.044,451.952v10.276l-2.352-10.276h-2.23v14.181H971V455.051l2.552,11.082h2.026V451.952Z" transform="translate(-16.103 -10.281)" fill="#000"/>
    <path id="Path_43" data-name="Path 43" d="M982.624,453.3h-.485a.939.939,0,0,0-1.076,1.072v9.321a.94.94,0,0,0,1.076,1.076h.485a.94.94,0,0,0,1.076-1.076v-9.321a.939.939,0,0,0-1.076-1.072m.06,12.946h-.606a2.323,2.323,0,0,1-2.637-2.633v-9.158a2.325,2.325,0,0,1,2.637-2.636h.606a2.324,2.324,0,0,1,2.632,2.636v9.158a2.322,2.322,0,0,1-2.632,2.633" transform="translate(-16.837 -10.272)" fill="#000"/>
    <path id="Path_44" data-name="Path 44" d="M828.079,357.2c-1.842,2.259-.134,5.46,1.293,5.46,13.226-9.932,25.707-30.527,25.707-40.138,0-7.125-7.477-10.361-18.343-10.361-37.628,0-86.216,45.979-86.216,97.825,0,24.3,17.079,43.053,42.7,45.045,16.646,1.293,32.693-5.041,44.581-15.486a3.678,3.678,0,0,0,1.171-3.368l-.151-.907a.669.669,0,0,0-1.065-.424c-10.428,7.806-25.169,14.011-39.893,12.339-16.865-1.914-28.457-16.352-28.457-37.734,0-41.935,32.248-86.293,63.693-88.75,8.221-.643,9.821,2.272,8.85,8.323-1.35,8.413-7.46,20.318-13.87,28.173" transform="translate(0 0)" fill="#000"/>
  </g>
</svg>
