<?xml version="1.0" encoding="UTF-8"?> <svg xmlns="http://www.w3.org/2000/svg" width="197.262" height="119.31" viewBox="0 0 197.262 119.31"><g transform="translate(-916 -497)"><g transform="translate(916 497)"><g transform="translate(42.842)"><path d="M113.983,35.77a54.043,54.043,0,0,1,48.408-30.1,54.928,54.928,0,0,1,49.35,32.1,12.268,12.268,0,0,1,3.621,4.528,18.917,18.917,0,0,1,3.032-3.208A59.77,59.77,0,0,0,162.386,0c-25.671,0-45.429,14.732-54.656,35.77Z" transform="translate(-103.167)" fill="#6a46f3" fill-rule="evenodd"></path><path d="M210.312,147.49a54.06,54.06,0,0,1-53.732,48.742c-28,0-49.473-19.96-53.38-45.913a13.364,13.364,0,0,1-1.778.114,8.424,8.424,0,0,1-4.062-1.016,59.654,59.654,0,0,0,118.355.682,12.152,12.152,0,0,1-5.4-2.6Z" transform="translate(-97.36 -82.59)" fill="#6a46f3" fill-rule="evenodd"></path></g><g transform="translate(0 26.578)"><path d="M85.9,106.571a3.72,3.72,0,0,1,.11-.814l4.422-16.924H83l-.647,2.552H82.3a5.47,5.47,0,0,0-4.942-3.005c-6.662,0-12.352,7.8-12.352,16.708,0,4.964,3.489,8.585,7.2,8.585a7.316,7.316,0,0,0,6.394-3.639h.048a4.681,4.681,0,0,0,4.656,3.718,5.715,5.715,0,0,0,3.894-1.1l1.368-5.245a3.912,3.912,0,0,1-1.448.238c-.827,0-1.223-.392-1.223-1.078Zm-11.04,1.184c-1.479,0-2.3-1.443-2.3-4,0-4.576,2.442-9.461,5.549-9.461,1.373,0,2.341,1.5,2.341,3.934C80.451,102.408,77.947,107.755,74.858,107.755Z" transform="translate(-36.404 -76.068)" fill-rule="evenodd"></path><path d="M24.483,60.4,20.695,75.057H13.645L17.482,60.4H10.618a7.942,7.942,0,0,1-7.252,3.951L2.051,69.359a11.036,11.036,0,0,0,1.272.062,10.548,10.548,0,0,0,4.334-1.012L0,97.684H7.745l4.295-16.475h7.049L14.745,97.684H22.49L32.228,60.4Z" transform="translate(0 -60.4)" fill-rule="evenodd"></path><path d="M180.59,75.243h-.048a5.542,5.542,0,0,0-4.88-2.521c-6.666,0-12.352,7.8-12.352,16.708,0,4.964,3.489,8.585,7.2,8.585a7.43,7.43,0,0,0,6.16-3.371h.048l-.779,3.049h6.38l9.738-37.284h-7.591l-3.885,14.833ZM173.158,92.1c-1.479,0-2.293-1.443-2.293-4,0-4.576,2.442-9.461,5.549-9.461,1.373,0,2.341,1.5,2.341,3.934C178.755,86.75,176.251,92.1,173.158,92.1Z" transform="translate(-91.448 -60.406)" fill-rule="evenodd"></path><path d="M139.957,88.5c-2.328,0-4.594,2.077-5.69,3.846H134.2l.862-3.437h-7.41l-6.394,24.514h7.6l3.032-11.555c.805-3.124,2.719-6.482,5.672-6.482a4.434,4.434,0,0,1,2.2.594l1.87-7.146a4.259,4.259,0,0,0-1.672-.33Z" transform="translate(-67.902 -76.135)" fill-rule="evenodd"></path><path d="M410.33,100.214c-1.514,0-2.09-.8-2.09-2.284,0-.823.044-1.483.044-2.442,0-2.812-1.316-5.676-3.085-6.93V88.5c4.348-.84,9.8-4.356,9.8-9.874,0-3.19-2.363-5.87-6.5-5.87a8.44,8.44,0,0,0-6.235,2.8h-.048L406.141,60.4h-7.573L388.83,97.684h7.591l1.985-7.586a4.5,4.5,0,0,1,3.533,4.673c0,2.1-.295,3.388-.295,5.316,0,3.674,2.649,6.033,6.675,6.033a8.212,8.212,0,0,0,5.047-1.615L412.31,99.66a3.943,3.943,0,0,1-1.98.559ZM399.584,85.587c.761-3.806,4-7.555,6.693-7.555a1.616,1.616,0,0,1,1.8,1.743C408.077,82.573,404.31,85.587,399.584,85.587Z" transform="translate(-217.732 -60.4)" fill-rule="evenodd"></path><path d="M309.993,88.38c-7.6,0-13.263,7.221-13.263,15.573,0,5.7,3.921,9.725,8.735,9.725,7.8,0,13.588-7.155,13.588-15.058,0-6.363-3.767-10.24-9.065-10.24Zm-3.639,19.573c-1.342,0-2.4-1.567-2.4-4.321,0-4.911,2.341-9.808,5.452-9.808,1.593,0,2.451,1.927,2.451,4.392,0,4.326-2.574,9.734-5.5,9.734Z" transform="translate(-166.159 -76.068)" fill-rule="evenodd"></path><path d="M358.671,103.333c0-5.672,3.173-9.553,6.574-9.553a5.941,5.941,0,0,1,4.048,1.87l1.413-5.461a11.45,11.45,0,0,0-6.015-1.8c-7.3,0-13.241,7.692-13.241,15.247,0,5.932,4,10.046,9.122,10.046a10.936,10.936,0,0,0,4.26-.752l1.487-5.764a6.255,6.255,0,0,1-3.753.9C360.215,108.064,358.671,106.524,358.671,103.333Z" transform="translate(-196.801 -76.074)" fill-rule="evenodd"></path><path d="M262.066,100.765a2.567,2.567,0,0,1-2.552-2.772c0-2.068.268-4.4.268-6.9,0-4.444-2.341-7.811-4.11-8.911l.009-.123c5.047-1.091,10.3-6.31,10.3-11.74,0-5.725-3.6-9.91-11.533-9.91h-7.322a7.944,7.944,0,0,1-7.256,3.951l-1.316,5.008a11.038,11.038,0,0,0,1.272.062,10.516,10.516,0,0,0,4.334-1.012L236.5,97.694h7.745l3.74-14.279c2.464.66,4.739,3.714,4.739,7.221,0,3.679-.942,5.527-.942,9.487,0,4.343,3.318,6.988,8.013,6.988a8.622,8.622,0,0,0,5.782-2.037l-1.126-4.884a4.193,4.193,0,0,1-2.385.59ZM251,77.848H249.45l3.124-11.991h1.03c3.278,0,4.5,2.112,4.5,4.7C258.1,74.355,255.751,77.848,251,77.848Z" transform="translate(-132.432 -60.406)" fill-rule="evenodd"></path></g><g transform="translate(163.798 68.746)"><path d="M372.24,156.23h2.807v.585h-1.091v3.071h-.62v-3.071h-1.091v-.585Zm5.786,0h.783v3.657h-.576v-2.7l-.876,2.7H376.9l-.876-2.728v2.728h-.563V156.23h.77l.9,2.508.9-2.508Z" transform="translate(-372.24 -156.23)"></path></g><g transform="translate(79.307 79.096)"><path d="M180.23,179.76h6.592c3.828,0,6.926.959,6.926,4.563a4.353,4.353,0,0,1-2.31,3.943v.114a4.168,4.168,0,0,1,3.155,4.282c0,3.775-3.265,5.408-7.208,5.408h-7.151V179.764Zm6.477,7.151c1.575,0,2.31-.73,2.31-1.857s-.73-1.575-2.31-1.575h-1.633v3.437h1.633Zm.339,7.437c1.914,0,2.816-.678,2.816-2.029s-.9-1.857-2.816-1.857h-1.971v3.885Z" transform="translate(-180.23 -179.756)"></path><path d="M218.12,179.76h11.828v4.057h-6.983v2.873h5.971v4.057h-5.971v3.265h7.265v4.057H218.12V179.764Z" transform="translate(-201.447 -179.756)"></path><path d="M255.475,183.807H250.63V179.75h14.53v4.057h-4.845v14.248H255.47V183.807Z" transform="translate(-219.652 -179.75)"></path></g></g></g></svg> 